<?xml version="1.0" encoding="UTF-8"?>
<svg xmlns="http://www.w3.org/2000/svg" version="1.1" viewBox="0 0 3061.42 3061.42">
  <!-- Generator: Adobe Illustrator 30.1.0, SVG Export Plug-In . SVG Version: 2.1.1 Build 136)  -->
  <defs>
    <style>
      .st0 {
        fill: #2d519e;
      }

      .st1 {
        fill: #ffd900;
      }

      .st2 {
        fill: #fff;
      }

      .st3 {
        fill: #055384;
      }
    </style>
  </defs>
  <g id="bg">
    <rect class="st1" x="-4.16" width="3061.42" height="3061.42" rx="729.02" ry="729.02"/>
  </g>
  <g id="logo">
    <path class="st2" d="M1448.15,1127.05c-7.59,5.44-13.67,12.08-16.77,21.09-13.54-4.69-20.04-18.14-31.15-25.93-19.27,8.5-27.98,29.27-47.46,38.62-12.49-7.56-15.82-15.88-5.07-27.59,9.96-10.85,22.24-19.58,30.7-33.6-5.95-15.07-20.37-23.19-30.98-34.41-11.24-11.88-11.11-21.26,3.78-30.97,20.06,11.34,31.33,31.88,51.18,45.22,15.17-12.62,29-27.87,46.05-37.28,17.5-9.66,39.68.7,60.34-6.83,7-16.93.15-35.32,4.09-52.25,5.4-7.75,12.18-7.62,20.83-3.74,7.5,15.95-.37,34.83,5.09,50.91,11.36,9.43,23.72,6.53,34.59,5.26,21-2.47,36.53,4.44,50.16,19.99,8.21,9.37,16.55,19.33,29.81,24.94,14.4-6.83,22.67-20.62,33.32-31.98,12.71-13.56,15.15-12.97,33.45,4.18-10.86,19.16-30.67,31.05-43.82,49.71,7.44,13.16,20.17,21.42,31.15,30.82,10.78,9.23,14.49,19.22,14.2,32.99-.75,35.98-1.31,72.03.1,107.97.77,19.57-3.42,34.78-19.53,46.93-10.89,8.22-20.22,18.51-30.39,28.01,3.7,23.77,39.8,26.33,36.03,56.12-32.29,10.93-37.68-24.99-61.64-33.93-24.88,36.56-63.77,40.95-104.39,36.44-11.97,23.2.77,46.49-7.61,68.24-14.52,6.2-22.5,1.83-23.11-13.66-.66-16.66-.15-33.37-.15-53.95-44.81,5.11-84.77.96-108.1-40.28-21.38,12.55-31.86,32.75-52.15,42.97-11.71-11.02-13.32-20.96-2.05-32.42,10.22-10.39,22.18-19.33,30.97-34.21-11.93-12.39-23.52-24.4-35.06-36.44-6.47-6.75-10.12-14.76-2.7-22.28,7.65-7.75,15.49-3.57,21.91,3.16,11.56,12.14,21.14,26.34,36.78,35.39,7.5-5.8,14.96-11.56,22.43-17.33,8.68,4.27,13.6,14.17,23.93,15.98,2.28,10.26-8.52,16.66-8.07,26.08,25.05,35.63,48.78,36.93,72.93,4.36,7.73.16,15.45.31,23.18.47,11.83,21.77,30.36,25.63,52.65,19.92,21.63-5.54,24.08-22.89,25.53-40.94,6.95-6.12,13.9-12.24,20.85-18.36,42.7-6.75,52.97-18.73,53.22-62.31.11-19.97-.77-39.98.21-59.9,1.24-25.24-8.53-42.4-27.83-49.45-15.99-3.53-19.91,14.04-32.19,8.62-3.02-10.92-15.74-12.81-20.53-22.09,12.12-19.85,12.92-37.2-10.29-49.95-22.29-12.25-43.1-6.71-61.49,16.92-6.1-.02-12.2-.03-18.3-.05-26.1-32.29-50.04-31.71-77.24,1.86-2.74,11.32,10.5,17.88,8.62,28.95Z"/>
    <path class="st2" d="M2313.48,1857.68c12.69-5.99,25.47-2.98,37.78-2.12,76.67,5.39,153.31,11.31,229.96,17.06,4.2.31,8.48.23,12.58,1.03,7.96,1.55,14.2,5.64,12.91,14.76-1.22,8.59-7.3,12.06-15.92,11.63-20-1-40.14-.66-59.99-2.88-58.64-6.56-117.46-10.25-176.35-13.26-10.51-.54-21.16-.93-31.44-2.98-14-2.79-15.67-11.66-9.53-23.25Z"/>
    <path class="st2" d="M448.27,1487.27c6.36-2.34,11.5-1.54,16.56.24,82.44,28.91,164.83,57.95,247.34,86.63,14.95,5.2,24.76,11.64,15.47,27.67-8.14,4.81-13.86,1.32-19.74-.75-79.4-27.99-158.83-55.92-238.19-84.01-6.93-2.45-14.14-4.98-20.08-9.11-6.8-4.72-8.54-11.75-1.36-20.67Z"/>
    <path class="st2" d="M445.79,1881.03c98.5-14.17,196.98-28.6,296.35-38.58,10.96,16.66,3.48,24.52-11.72,26.98-22.84,3.69-45.93,5.85-68.9,8.77-63.7,8.09-127.4,16.21-191.09,24.36-21.15,2.7-21.55,2.44-24.63-21.53Z"/>
    <path class="st2" d="M2625.03,1488.4c7.88,10.76,5.47,20.38-6.37,25.37-72.66,30.63-143.15,66.39-217.64,92.71-.9.32-2.08-.17-4.54-.44-9.63-12.18-4.34-19.75,8.62-25.49,26.96-11.94,53.86-24.03,80.73-36.19,37.4-16.92,74.67-34.14,112.18-50.83,8.26-3.68,16.28-10.82,27.03-5.14Z"/>
    <path class="st2" d="M595.6,1745.23c-7.19-8.28-7.11-14.07-1.6-22.81,49.16-2.85,100.19-5.81,151.4-8.78,5.51,15.18,3.93,25.36-10.62,25.25-46.47-.36-92.49,9.67-139.17,6.35Z"/>
    <path class="st2" d="M2286.16,1713.75c.55-10.3,4.47-16.32,10.62-23.36,36.41-3.74,73.8,3.97,111.33,3.25,8.13-.16,14.96,3.12,15.31,12.17.41,10.44-6.16,14.73-16.11,14.47-39.67-1.01-79.5.75-121.16-6.53Z"/>
    <path class="st2" d="M2475.2,1720c9.68-14.86,18.61-28.81,27.8-42.59,4.33-6.5,10.17-11.59,18.29-7.18,9.84,5.34,7.63,13.73,3.12,21.49-6.29,10.83-12.26,22-19.85,31.88-8.53,11.1-18.49,13.45-29.35-3.6Z"/>
    <path class="st2" d="M535.38,1727.71c-22.47-15.4-21.41-28.31,1.45-56.33,5.83-1.56,12.09.59,13.13,5.33,4.03,18.43-4.56,33.71-14.58,51Z"/>
    <path class="st0" d="M2378.96,415.76c-6.77-1.64-8.8-2.55-10.84-2.57-23.26-.26-46.52-.43-69.78-.54q-35.14-.16-48.43,32.59c-54.98,134.89-110.44,269.58-161.6,406-6.46,17.23-12.66,34.88-25.36,52.32-31.12-44.04-59.18-86.83-84.75-129.75,5.81-10.3,14.68-12.31,21.5-17.07,37.96-26.49,66.75-61.74,74.31-106.75,20.24-120.45-42.42-212.51-163.41-231.55-69.23-10.89-139.34-3.48-209.04-4.94-2.71-.06-5.48,2.72-10.62,5.45v514.39c39.99.6,78.15,2.12,119.47-1.32v-190c8.66,11.19,12.63,15.73,15.94,20.7,32.21,48.34,64.82,96.42,96.2,145.3,13.33,20.76,29.06,29.87,54.86,28.13,61.78-4.17,123.79-2.39,185.71-2.34,11.4.01,23.25,2.3,35.19-3.77,16.71-20.45,14.65-49.86,31.72-73.77h177.93c11.17,17.46,15.73,36.05,21.68,53.86,5.78,17.28,14.82,26.14,34.28,25.35,30.61-1.24,61.31-.32,91.98-.41,7.47-.02,14.82-.78,24.29-13.14-64.21-168.21-130.41-339.59-201.24-506.18ZM1953.19,617.3c-4.6,36.06-20.58,54.82-53.19,62.46-28.13,6.59-56.59,5.15-88.82,4.21v-154.69c37.05-3.76,73.44-4.28,107.65,11.87,25.27,11.92,38.43,44.26,34.36,76.16ZM2270.63,745.35c15.72-43.06,30.57-83.73,47.93-131.28,16.93,47.8,31.11,87.81,46.51,131.28h-94.44Z"/>
    <path class="st0" d="M816.96,1964.52h143.44c8.6,28.92,7.42,659.08-1.51,687.66-31.27,4.07-63.85,2.27-96.23,1.03-16.17-.62-24.79-14.83-34.2-26.16-68.87-82.95-137.58-166.03-206.64-248.82-5.02-6.02-8.11-15.17-20.99-16.02,0,48.6.78,96.84-.22,145.05-.98,47.16,4.57,94.65-4.26,146.09-31.93,0-62.27-.04-92.6.01-54.97.1-52.93,6.19-52.88-53.14.17-198.95-.16-397.89-.17-596.84,0-11.49-1.8-23.23,1.82-33.31,10.97-13,24.68-6.22,36.64-8.38,58.28-10.57,96.04,16.44,130.75,61.19,58.9,75.93,123.03,147.79,185.05,221.28,1.13,1.34,3.39,1.74,9.55,4.72.82-95.08,1.62-188.15,2.45-284.36Z"/>
    <path class="st0" d="M2595.93,2519.7v127.68c-25.54,8.05-393.48,10.95-460.53,4.32-8.14-5.83-7.34-14.53-7.33-22.95.24-213.81.5-427.62.74-641.43,0-7.43-.15-14.89,6.32-23.9h461.52c5.07,38.05,2.12,77.32,1.78,121.23h-299.83v143.87h273.93c5.33,31.56,5.26,60.22.9,88.01-4,25.45-33.13,44.9-61.57,45.2-60.3.63-120.6.52-180.9,1.1-10.29.1-21.11-2.72-32.75,4.3v150.81c50.23,3.68,99.6,1.44,148.85,1.7,48.58.25,97.16.06,148.87.06Z"/>
    <path class="st0" d="M1472.85,1965.56c5.09,38.9,2.58,77.49,1.97,120.08h-272.63v142.27h257.73c4.86,33.19,4.41,63.57.73,93.46-2.44,19.85-32.08,39.78-54.71,39.99-57.1.53-114.21.45-171.32.8-10.33.06-20.95-1.49-32.57,3.03v152.96c93.18,4.06,186.71.06,282.63,2.63v125.51c-10.1,8.76-21.06,6.97-31.47,6.99-127.96.29-255.93.44-383.89.62-3.17,0-6.36.1-9.52-.11-20.05-1.36-22.57-4.03-23.62-25.16-.21-4.22-.02-8.46-.02-12.7.06-203.15.12-406.3.19-609.46,0-5.29-.09-10.59.09-15.87.89-26.09,3.4-28.85,29.54-28.92,72.97-.2,145.94-.03,218.91-.12,50.76-.06,101.53-.42,152.29-.35,10.41.02,21.1-2.02,35.69,4.34Z"/>
    <path class="st0" d="M1662.17,1961.31c46.78,126.73,92.98,251.89,139.18,377.05,1.84.01,3.67.03,5.51.04,13.76-39.21,27.62-78.38,41.24-117.64,25.63-73.84,50.92-147.8,76.75-221.57,12.53-35.79,14.64-36.84,52.09-37.05,29.62-.16,59.25-.57,88.87-.36,10.32.08,21.2-2.4,31.1,4.14,9.1,11.67,4.97,23.3.52,35.62-37.35,103.28-74.49,206.64-111.49,310.04-35.94,100.42-71.83,200.86-107.37,301.42-12.77,36.12-16.38,39.36-54.08,39.62-16.93.12-33.86.03-50.79.02-35.91-.01-39.58-2.15-51.11-34.34-15.66-43.73-30.49-87.75-46.19-131.47-48.17-134.16-96.69-268.18-144.8-402.36-9.98-27.82-19.04-55.99-28.04-84.15-8.78-27.51-1.97-38.29,26.06-38.82,42.27-.8,84.57-.21,132.55-.21Z"/>
    <path class="st0" d="M1326.06,878.64c-35.38-89.19-70.87-178.34-106.82-267.3-23.31-57.7-47.95-114.86-70.97-172.67-7.74-19.43-19.15-27.8-40.55-26.49-27.31,1.68-54.81.41-79.92.41-12.11,9.06-13.83,17.62-16.87,25.42-26.09,66.79-51.98,133.66-78.25,200.38-33.23,84.4-66.91,168.63-100.01,253.09-4.46,11.39-12.28,22.77-6.05,36.12,8.76,8.53,19.88,6.39,30.13,6.57,25.35.44,50.81-1.24,76.05.49,20.8,1.42,30.78-8.14,37.55-25.94,6.66-17.5,9.46-36.71,21.3-52.83h180.12c12.75,17.61,16.15,37.78,23.79,56.13,6.2,14.9,15.1,24.01,33.22,23.26,28.48-1.17,57.05-.23,85.58-.22,8.52,0,17.08-.02,24.11-10.87,2.9-15.35-6.33-30.24-12.41-45.55ZM1031.26,746.48c15.75-44.16,30.22-84.74,44.69-125.32,2.12-.09,4.24-.18,6.36-.27,14.87,40.34,29.73,80.67,45.76,124.15-33.7,4.21-62.53,2.53-96.81,1.44Z"/>
    <path class="st0" d="M766.08,570.37c-14.29-5.03-20.15-12.84-26.87-19.44-27.73-27.24-61.65-35.48-99.06-31.71-21.26,2.14-41.02,19.38-43.53,36.11-2.69,17.91,9.97,37.23,32.21,45.58,30.58,11.48,61.77,21.35,92.57,32.26,31.14,11.04,60.3,25.29,81.58,52.01,61.36,77.04,37.32,190.4-50.9,239.53-96.87,53.94-230.59,23.85-295.16-66.42-12.59-17.6-11.6-29.23,4.59-44.01,6.21-5.67,13.37-10.33,20.2-15.3q38.98-28.37,74.22,2.59c28.05,24.47,59.87,39.16,98.13,37,11.89-.67,23.16-3.2,33.12-9.51,25.68-16.26,27.66-50.17,4.67-70.18-9.97-8.68-21.98-12.53-34.3-15.48-29.81-7.15-58.57-17.32-87.32-27.84-97.56-35.71-128.56-158.8-65.93-242.7,32.76-43.89,76.31-68.92,133.03-66.64,17.94.72,35.97.78,53.9-.01,61.9-2.73,105.79,30.06,144.64,72.77,7.64,8.39,11.59,19.11,3.03,28.68-21.67,24.24-43.27,48.84-72.82,62.72Z"/>
    <path class="st0" d="M331.55,1422.58h-84.91c-8-10.59-5.2-20.46-5.22-29.65-.22-108.97-.21-217.94-.15-326.91.02-36.58.92-35.11,37.91-36.94,30.39-1.51,47.99,10.08,62.56,36.05,26.77,47.73,56.71,93.7,87.6,144.11,14.1-26.55,26.61-49.42,38.46-72.61,13.92-27.24,27.76-54.54,40.66-82.27,7.97-17.14,18.7-26.71,39-24.76,16.49,1.58,33.25.32,54.68.32.09,132.25.11,261.58-.98,393.33-30.55,5.2-57.22,3.08-86.7.59v-158.95c-32.02,35.5-49.2,78.4-73.47,116.02-19.24,8.29-30.7.68-40.1-14.94-21.16-35.14-43.03-69.86-69.34-104v160.61Z"/>
    <path class="st0" d="M2425.63,1421.98c-25.26,6.91-49.38,2.16-73.34.65-10.59-.67-15.67-10.09-21.68-17.21-29.99-35.56-59.71-71.35-89.56-107.02-7.94-9.49-16.03-18.86-29.01-34.11v158.79h-83.88c-9.37-27.82-8.06-368.17,1.62-391.67,17.29-3.51,35.26-.43,53.09-1.17,14.91-.62,22.37,10.34,30.38,20.08,34.9,42.46,69.55,85.12,104.55,127.51,6.56,7.94,11.52,17.62,24.05,23.97v-170.98c29.19-1.75,55.84-1.99,83.8,1.2v389.97Z"/>
    <path class="st0" d="M2069.23,1422.05c-25.25,6.42-49.38,2.06-73.33.38-10.29-.72-15.75-10.29-21.73-17.34-30.78-36.26-60.94-73.03-91.61-109.39-7.32-8.68-12.48-19.56-26.85-26.84v151.57c-28.91,6.83-54.98,2.19-80.43,3.22-7.66-23.03-8.95-354.16-1.81-390.07,19.34-6.77,39.39-2.52,59.15-1.36,11.67.69,17.54,11.14,24.18,19.12,35.83,43.08,71.34,86.41,107.01,129.61,5.96,7.22,12.14,14.25,22.89,26.83v-174.56c29.58-5.4,55.39-4.47,82.52.16v388.67Z"/>
    <path class="st0" d="M1579.23,496.16c4.58,22.09,2.91,41.17,2.83,60.06-.09,22.51-3.3,25.7-25.51,26.25-27.52.67-54.8,1.05-81.08,11.46-31.88,12.63-56.59,32.97-71.15,64.12-28.91,61.87-.81,131.44,64.15,160.4,26.82,11.95,41.93,13.72,78.66,8.74,4.5-12.56,2.27-26.35,2.19-39.73-.08-13.52,2.62-27.35-2.8-42.25-29.68-5.83-60.4.4-93.49-3.63-4.43-25.74-1.66-51.29-1.19-78.03h178.12v236.85c-1.73,1.5-3.76,4.65-6.47,5.41-77.45,21.6-154.18,21.03-222.79-24.03-71.16-46.73-103.19-116.11-92.63-201.8,10.12-82.08,57.38-137.01,132.5-167.68,43.52-17.77,89.53-22.7,138.65-16.13Z"/>
    <path class="st0" d="M1173.7,1039.35c-52.33-10.94-104.93-7.33-157.58-5.55-1.66.06-3.25,2.47-6.98,5.5v382.55c9.59,6.96,18.27,5.17,26.53,5.17,28.56.01,57.18-1.42,85.68-.13,80.76,3.65,184.47-52.54,196.96-168.27,12.33-114.24-57.11-200.98-144.61-219.27ZM1234.78,1241.62c-6.03,61.73-51.48,103.57-110.96,102.55-12.97-.22-23.94-2.86-24.01-18.3-.31-67.28-.14-134.56-.14-203.04,78.58-17.12,142.63,41.73,135.1,118.8Z"/>
    <path class="st0" d="M954.79,1516.22c-44.02-8.41-88.51-3.27-132.77-4.95-7.23-.27-15.03-1.51-20.36,5.71-4,34.23-2.84,347.03,2.17,373.83,40.43,0,79.38.58,118.31-.11,109.28-1.93,178.87-69.42,185.29-179.03,5.73-97.88-56.13-177.01-152.63-195.45ZM1010.82,1758.02c-21.64,37.83-71.12,58.31-121.07,47.77v-203.58c31.08-15.19,78.95-2.89,108.41,27.72,27.59,28.68,33.77,91.18,12.66,128.08Z"/>
    <path class="st0" d="M835.13,1032.1c-25.05.77-48.02-.8-71.28,4-50.73,127.52-99.53,254.96-149.74,388.83,32.07,0,57.95.52,83.79-.24,10.94-.32,14.9-9.7,19.08-18.72,5.69-12.3,6.65-26.79,18.17-38.53h129.82c16.23,16.79,14.23,41.38,31.99,58.71,27.81-2.74,57.73,4.5,90.63-4.89-48.8-133.04-97.22-261.87-152.45-389.16ZM765.17,1289.18c8.74-33.86,21.5-61.85,36.1-94.42,14.65,32.45,24.74,61.22,34.1,91.87-24.28,5.95-45.6,2.99-70.2,2.55Z"/>
    <path class="st0" d="M2670.79,1034.82c-25.41-1.58-48.33-3.51-72.39.59-52.75,126.61-100.56,254.7-150.2,388.08,34.13,1.79,62.89,2,90.94-.04,14.91-16.67,14.12-39.27,28.91-56.28h132.55c15.42,16.75,14.77,39.34,30.18,57.12,26.99-1.2,55.77,3.38,89.67-1.27-47.68-134.37-97.21-261.74-149.66-388.21ZM2600,1289.08c7.73-34.32,19.41-62.2,33.09-95.92,16.92,32.13,25.67,62.09,35.57,93.15-23.36,5.33-43.96,2.87-68.66,2.77Z"/>
    <path class="st0" d="M2145.78,1516.56c-16.29-6.69-30.18-4.28-43.74-4.47-30.42-.42-30.54-.16-41.14,27.47-39.62,103.32-79.26,206.63-118.58,310.07-4.29,11.29-12.42,21.89-9.93,39.91,28.2,3.31,55.97,1.36,82.27.93,17.04-15.98,15.47-38.66,28.2-56.63h127.26c12.71,17.77,11.83,39.93,25.76,56.38,27.78.46,55.66,3.14,88.69-3.72-43.31-128.12-91.42-249.99-138.81-369.94ZM2072.93,1758.93c8.37-33.7,19.06-63.39,32.62-96.62,17.17,30.85,21.12,62.24,33.97,92.77-21.93,7.83-42.18,3.52-66.59,3.84Z"/>
    <path class="st0" d="M1363.93,1743.91h-137.73c-1.56,24.12-1.96,44.73,1.42,68.77h154.84c7.76,26.86,2.21,50.66,3.95,76.43h-244.12v-372.74c23.52-6.54,176.6-8.57,239.44-3.4,5.04,23.21,3.39,46.79,1.17,73.47h-152.88c-8.21,26.21-4.45,49.78-3.1,76.14h134.49c8.79,26.9,5.35,51.45,2.53,81.33Z"/>
    <path class="st0" d="M1422.98,1306.93c-1.1-16.22,21.71-27.49,9.33-47.48-15.01-4.41-36.18,12.49-46.94-11.24,3.47-20.26,28.17-15.65,37.57-31.88-1.34-17.76-29.48-20.63-26.29-43.65,13.14-14.33,28.23.36,43.15.53,5.86-12.06-6.17-17-8.41-25.08-1.67-9.61,1.91-16.8,10.06-21.89,2.35-1.53,4.83-2.87,7.32-4.17,3.61-2.23,7.19-4.52,10.89-6.66,14.48-7.34,21.01,8.56,32.14,11.22,11.33-2.83,9.57-14.37,14.41-21.41,1.46-2.77,3.35-5.2,5.54-7.42,2.42-2.05,5.13-3.56,8.11-4.63,6.28-1.5,12.35-1.1,18.08,2.09,11.76,7.04,9.59,22.86,20.85,32.56,16.72-3.24,33.51-30.22,52.97-4.22,7.8,8.7,18.83,15.5,17.77,29.52-.68,6.73-.15,12.74,8.53,13.63,12.99,1.34,25.84,3.77,29.1,18.98,3.67,17.08-10.49,23.37-21.09,31.54-1.68,1.29-2.86,3.02-4.35,6.22,1.26,15.53,25.09,19.87,22.52,37.63-2.69,18.6-20.26,18.33-33.75,22.65-3.05,11.36,8.93,19.27,6,30.08-2.51,11.57-9.87,18.76-20.6,22.9-10.82,1.06-18.21,10.57-26.48,11.73-13.01.75-18.37-9.71-28.03-11.93-11.74,3.02-13.71,18.81-26.31,20.96-7.62,1.91-15.12,1.62-22.46-1.25-9.11-4.23-12.6-13.37-18.05-23.87-21.15,32.74-35.3,8.44-51.11-3.57-8.9-5.36-19.1-9.51-20.45-21.89Z"/>
    <path class="st0" d="M1703.35,1514.62c29.58-3.65,55.4-4.03,85.61.05v299.23h129.3c1.53,26.15,3.41,49.76-1.36,75.62h-213.54v-374.89Z"/>
    <path class="st0" d="M1440.45,1889.77v-375.01c27.58-4.18,52.42-3.13,81-.78v299.01c49.03,4.1,95.08.63,143.24,2.2.55,25.82,4.64,49.49-1.44,74.58h-222.81Z"/>
    <polygon class="st3" points="1455.42 1126.09 1455.4 1124.43 1456.8 1125.41 1456.87 1127.1 1455.42 1126.09"/>
    <polygon class="st3" points="1513.86 1100.73 1513.34 1098.64 1515.52 1097.85 1515.97 1100.29 1513.86 1100.73"/>
  </g>
</svg>