<?xml version="1.0" encoding="UTF-8"?>
<svg id="Layer_1" xmlns="http://www.w3.org/2000/svg" version="1.1" viewBox="0 0 3061.42 3061.42">
  <!-- Generator: Adobe Illustrator 30.1.0, SVG Export Plug-In . SVG Version: 2.1.1 Build 136)  -->
  <defs>
    <style>
      .st0 {
        fill: #ffd900;
      }

      .st1 {
        fill: #fff;
      }

      .st2 {
        opacity: .4;
      }
    </style>
  </defs>
  <g class="st2">
    <path class="st1" d="M2950.42,1931.32c8.1,30.26-9.86,61.4-40.12,69.5l-249.91,66.96-.04.02,195.75,113c27.15,15.67,36.46,50.4,20.78,77.53l-41.07,71.14c-15.68,27.13-50.38,36.44-77.53,20.76l-195.71-113,66.96,249.91c8.1,30.26-9.86,61.38-40.14,69.5l-79.3,21.25c-30.26,8.1-61.4-9.86-69.5-40.14l-102.76-383.53c-4.75-17.71-12.91-34.11-23.86-48.36-10.94-14.26-24.67-26.4-40.54-35.55l-644.91-372.35v746.81c0,36.65,14.55,71.81,40.48,97.72l.04.04,280.76,280.78c22.16,22.16,22.16,58.09,0,80.25l-58.06,58.07c-22.16,22.16-58.09,22.16-80.25,0l-182.97-182.97v226.03c0,31.35-25.41,56.74-56.74,56.74h-82.14c-31.33,0-56.74-25.4-56.74-56.74v-225.99l-182.95,182.93c-22.16,22.16-58.09,22.16-80.25,0l-58.07-58.07c-22.16-22.16-22.16-58.09,0-80.25l280.78-280.76c12.95-12.95,23.07-28.21,29.95-44.84,6.88-16.6,10.53-34.56,10.53-52.88v-744.7l-644.87,372.31c-31.74,18.34-54.89,48.52-64.37,83.91l-.02.06-102.78,383.55c-8.12,30.26-39.24,48.23-69.5,40.12l-79.32-21.25c-30.27-8.12-48.23-39.24-40.12-69.5l66.98-249.95-195.75,113.02c-27.15,15.67-61.85,6.37-77.53-20.76l-41.07-71.14c-15.65-27.13-6.37-61.85,20.78-77.51l195.71-113-249.89-66.98c-30.28-8.12-48.25-39.24-40.12-69.5l21.23-79.32c8.12-30.26,39.24-48.23,69.52-40.12l383.53,102.78c11.77,3.15,23.8,4.71,35.77,4.71,24.05,0,47.91-6.29,69.11-18.51l646.82-373.43-646.76-373.41c-31.74-18.32-69.46-23.29-104.87-13.8l-.06.02-383.53,102.74c-30.28,8.12-61.4-9.86-69.5-40.12l-21.25-79.3c-8.12-30.28,9.84-61.4,40.12-69.5l249.93-66.98-195.75-113.02c-27.13-15.67-36.44-50.38-20.76-77.53l41.07-71.12c15.66-27.15,50.38-36.44,77.51-20.78l195.73,113-66.96-249.89c-8.1-30.28,9.86-61.4,40.12-69.5l79.32-21.25c30.26-8.12,61.38,9.86,69.5,40.12l102.74,383.55c4.75,17.71,12.91,34.09,23.86,48.35,10.94,14.27,24.67,26.4,40.54,35.57l644.91,372.33v-742.43c0-36.65-14.57-71.81-40.48-97.74l-.02-.02-280.76-280.78c-22.16-22.16-22.16-58.09,0-80.25l58.07-58.07c22.16-22.16,58.09-22.16,80.25,0l182.97,182.97V56.74C1432.91,25.41,1458.3,0,1489.65,0h82.14c31.33,0,56.74,25.41,56.74,56.74v225.99l182.95-182.93c22.16-22.16,58.09-22.16,80.25,0l58.06,58.07c22.16,22.16,22.16,58.09,0,80.25l-280.78,280.76c-12.97,12.97-23.09,28.23-29.97,44.84-6.86,16.62-10.51,34.58-10.51,52.9v744.66l644.87-372.31c31.74-18.34,54.89-48.52,64.39-83.91v-.04l102.78-383.53c8.1-30.28,39.22-48.25,69.5-40.12l79.3,21.23c30.28,8.12,48.25,39.24,40.14,69.52l-66.98,249.91v.02l195.75-113.02c27.13-15.67,61.85-6.37,77.53,20.78l41.05,71.12c15.68,27.15,6.37,61.85-20.76,77.53l-195.71,113,249.89,66.96c30.26,8.12,48.23,39.24,40.12,69.5l-21.25,79.32c-8.1,30.26-39.22,48.23-69.5,40.12l-383.53-102.78c-11.77-3.15-23.8-4.71-35.77-4.71-24.05,0-47.91,6.29-69.11,18.51l-643.02,371.24,642.98,371.22c31.74,18.34,69.46,23.29,104.87,13.8h.02l383.55-102.76c30.28-8.1,61.4,9.86,69.5,40.12l21.25,79.32Z"/>
  </g>
  <g class="st2">
    <path class="st0" d="M3061.42,1491.21v81.11c0,31.63-25.63,57.26-57.26,57.26h-425.37c-31.61,0-57.24-25.63-57.24-57.26v-81.11c0-31.61,25.63-57.24,57.24-57.24h425.37c31.63,0,57.26,25.63,57.26,57.24Z"/>
    <path class="st0" d="M539.86,1491.21v81.11c0,31.63-25.63,57.26-57.26,57.26H57.24c-31.61,0-57.24-25.63-57.24-57.26v-81.11c0-31.61,25.63-57.24,57.24-57.24h425.37c31.63,0,57.26,25.63,57.26,57.24Z"/>
    <path class="st0" d="M1091.35,2487.29l-212.68,368.39c-15.79,27.37-50.81,36.75-78.2,20.94l-70.25-40.56c-27.39-15.79-36.77-50.81-20.96-78.2l212.68-368.37c15.81-27.39,50.83-36.77,78.22-20.96l70.23,40.56c27.39,15.81,36.77,50.83,20.96,78.2Z"/>
    <path class="st0" d="M2352.13,303.56l-212.68,368.39c-15.79,27.37-50.81,36.75-78.2,20.94l-70.25-40.56c-27.39-15.79-36.75-50.81-20.96-78.2l212.68-368.37c15.81-27.39,50.83-36.77,78.22-20.96l70.25,40.56c27.37,15.81,36.75,50.81,20.94,78.2Z"/>
    <path class="st0" d="M2331.18,2836.06l-70.23,40.58c-27.39,15.79-62.4,6.43-78.22-20.96l-212.68-368.39c-15.79-27.37-6.43-62.38,20.96-78.2l70.25-40.56c27.39-15.81,62.4-6.43,78.2,20.96l212.68,368.37c15.81,27.39,6.43,62.4-20.96,78.2Z"/>
    <path class="st0" d="M1070.42,652.32l-70.25,40.56c-27.39,15.81-62.4,6.43-78.22-20.94l-212.68-368.39c-15.79-27.39-6.43-62.38,20.96-78.2l70.25-40.56c27.39-15.81,62.4-6.43,78.2,20.96l212.68,368.37c15.81,27.39,6.43,62.4-20.94,78.2Z"/>
    <path class="st0" d="M1530.7,711.4c-453.07,0-820.35,367.3-820.35,820.37s367.28,820.37,820.35,820.37,820.37-367.3,820.37-820.37-367.28-820.37-820.37-820.37ZM1530.7,2156.51c-345.02,0-624.74-279.7-624.74-624.74s279.72-624.74,624.74-624.74,624.76,279.7,624.76,624.74-279.72,624.74-624.76,624.74Z"/>
  </g>
  <g>
    <path class="st0" d="M732.59,773.17c-34.5,0-64.27-4.31-89.3-12.94-25.04-8.63-44.32-21.98-57.84-40.08-13.53-18.09-20.3-41.52-20.3-70.27v-3.04h95.39v10.66c0,7.44,1.6,13.28,4.82,17.51,3.21,4.23,9.89,7.19,20.04,8.88,10.15,1.7,25.88,2.54,47.19,2.54,19.28,0,33.49-.59,42.62-1.78,9.13-1.18,14.97-3.21,17.5-6.09,2.54-2.87,3.81-6.85,3.81-11.92,0-6.09-2.28-10.65-6.85-13.7-4.57-3.04-13.79-5.41-27.65-7.1l-106.55-14.21c-20.98-3.04-38.56-8.71-52.77-17-14.21-8.28-24.86-19.19-31.97-32.72-7.1-13.53-10.66-29.43-10.66-47.7,0-13.53,2.87-26.89,8.63-40.08,5.75-13.19,15.05-25.12,27.91-35.77,12.85-10.66,29.76-19.19,50.74-25.62,20.97-6.42,46.85-9.64,77.63-9.64,36.19,0,66.04,4.99,89.56,14.97,23.51,9.98,41.1,24.19,52.77,42.62,11.67,18.44,17.51,40.34,17.51,65.71v3.04h-95.39v-7.61c0-8.12-1.78-14.54-5.33-19.28-3.55-4.73-10.66-8.12-21.31-10.15-10.65-2.03-26.64-3.04-47.95-3.04-16.24,0-28.59.76-37.04,2.28-8.46,1.52-14.3,3.81-17.51,6.85-3.22,3.04-4.82,7.1-4.82,12.18,0,3.38.76,6.34,2.28,8.88,1.52,2.54,4.06,4.49,7.61,5.83,3.55,1.36,8.37,2.54,14.46,3.55l106.55,15.73c27.73,4.06,49.22,11.08,64.44,21.06,15.22,9.98,25.88,21.74,31.97,35.26,6.09,13.53,9.13,27.57,9.13,42.11,0,19.28-5.33,37.29-15.98,54.04-10.66,16.74-27.65,30.28-50.99,40.59-23.34,10.32-54.12,15.48-92.35,15.48Z"/>
    <path class="st0" d="M1001.5,768.1h-107.06l146.64-339.95h136.49l147.14,339.95h-109.6l-80.68-196.36-22.33-57.33h-6.6l-21.82,57.33-82.2,196.36ZM1231.86,705.18h-250.65v-85.75h250.65v85.75Z"/>
    <path class="st0" d="M1499.25,773.17c-35.52,0-65.96-7.18-91.33-21.57-25.37-14.37-44.74-34.67-58.1-60.89-13.37-26.21-20.04-57.08-20.04-92.6s7.78-66.38,23.34-92.6c15.56-26.21,38.06-46.51,67.48-60.89,29.43-14.37,64.77-21.56,106.05-21.56,38.56,0,71.54,5.41,98.94,16.24,27.4,10.83,48.37,26.31,62.92,46.42,14.54,20.13,21.82,44.23,21.82,72.3v3.55h-106.55v-3.55c0-15.89-5.76-27.15-17.25-33.74-11.51-6.6-32.31-9.89-62.41-9.89-24.36,0-43.22,2.28-56.58,6.85-13.37,4.57-22.75,12.86-28.16,24.86-5.42,12.01-8.12,29.35-8.12,52.01s2.54,39.58,7.61,51.75c5.07,12.18,13.95,20.55,26.64,25.12,12.69,4.57,30.52,6.85,53.53,6.85,27.4,0,48.03-.93,61.9-2.79,13.87-1.86,23.09-5.92,27.65-12.18,4.57-6.25,6.85-15.98,6.85-29.17v-18.77l95.39-2.03v7.1l-82.71,71.54h-11.16c-3.04,13.19-8.71,25.71-17,37.55-8.29,11.84-20.47,21.48-36.53,28.92-16.07,7.44-37.47,11.16-64.19,11.16ZM1710.83,652.41h-200.93v-70.02h200.93v70.02ZM1710.83,768.1h-88.79v-96.91l-6.6-10.66v-73.57h95.39v181.14Z"/>
    <path class="st0" d="M1834.63,768.1h-95.39v-339.95h198.39c30.1,0,55.31,4.06,75.6,12.18,20.3,8.12,35.6,19.87,45.92,35.26,10.31,15.4,15.48,34.25,15.48,56.57,0,17.93-3.13,33.41-9.39,46.43-6.26,13.03-16.16,23.51-29.68,31.46-13.53,7.95-31.13,13.28-52.77,15.98v5.07c17.59,4.4,30.19,10.91,37.8,19.54s14.63,19.37,21.06,32.22l42.11,85.24h-110.1l-40.59-83.21c-4.06-8.45-8.29-15.05-12.69-19.79-4.4-4.73-10.15-8.03-17.25-9.89-7.1-1.85-16.92-2.79-29.43-2.79h-39.07v115.69ZM1834.63,513.89v67.48h101.99c13.87,0,23.67-2.03,29.43-6.09,5.75-4.06,8.63-13.36,8.63-27.91,0-13.52-2.88-22.49-8.63-26.89-5.75-4.39-15.56-6.6-29.43-6.6h-101.99Z"/>
    <path class="st0" d="M2185.75,768.1h-107.06l146.64-339.95h136.49l147.14,339.95h-109.6l-80.68-196.36-22.33-57.33h-6.6l-21.82,57.33-82.2,196.36ZM2416.11,705.18h-250.65v-85.75h250.65v85.75Z"/>
    <path class="st0" d="M211.25,1376.97h-95.39v-339.95h129.39l62.41,141.06,33.49,87.78h6.6l31.97-87.78,59.36-141.06h129.39v339.95h-95.39v-140.55l3.55-56.83h-6.6l-19.28,56.83-50.74,120.25h-115.69l-50.74-120.25-19.28-56.83h-6.6l3.55,56.83v140.55Z"/>
    <path class="st0" d="M685.66,1376.97h-107.06l146.64-339.95h136.49l147.14,339.95h-109.6l-80.68-196.36-22.33-57.33h-6.6l-21.82,57.33-82.2,196.36ZM916.01,1314.05h-250.65v-85.75h250.65v85.75Z"/>
    <path class="st0" d="M1119.98,1376.97h-95.39v-339.95h95.39v339.95ZM1196.6,1376.97h-148.16v-85.75h148.16c20.3,0,36.36-1.69,48.2-5.07,11.84-3.38,20.29-11.07,25.37-23.09,5.07-12,7.61-30.7,7.61-56.07s-2.54-44.48-7.61-56.32c-5.07-11.84-13.53-19.45-25.37-22.83-11.84-3.38-27.91-5.07-48.2-5.07h-148.16v-85.75h148.16c37.55,0,70.02,6.68,97.42,20.04,27.4,13.37,48.54,32.73,63.42,58.1,14.88,25.37,22.33,55.99,22.33,91.84s-7.44,66.47-22.33,91.84c-14.89,25.37-36.02,44.74-63.42,58.1-27.4,13.37-59.87,20.04-97.42,20.04Z"/>
    <path class="st0" d="M1588.3,1382.04c-39.24,0-72.99-7.18-101.23-21.57-28.25-14.37-49.81-34.67-64.69-60.89-14.89-26.21-22.33-57.08-22.33-92.6s7.44-66.38,22.33-92.6c14.88-26.21,36.45-46.51,64.69-60.89,28.24-14.37,61.98-21.56,101.23-21.56s75.01,7.19,103.26,21.56c28.24,14.38,49.8,34.68,64.69,60.89,14.88,26.22,22.33,57.08,22.33,92.6s-7.44,66.39-22.33,92.6c-14.89,26.22-36.45,46.51-64.69,60.89-28.25,14.38-62.66,21.57-103.26,21.57ZM1588.3,1290.71c23,0,40.92-2.28,53.78-6.85,12.85-4.57,21.9-12.94,27.15-25.12,5.24-12.18,7.86-29.43,7.86-51.75s-2.63-40-7.86-52.01c-5.25-12-14.3-20.3-27.15-24.86-12.86-4.57-30.78-6.85-53.78-6.85s-40.77,2.28-53.28,6.85c-12.52,4.57-21.23,12.86-26.13,24.86-4.91,12.01-7.36,29.35-7.36,52.01s2.45,39.58,7.36,51.75c4.9,12.18,13.61,20.55,26.13,25.12,12.51,4.57,30.27,6.85,53.28,6.85Z"/>
    <path class="st0" d="M1899.33,1376.97h-95.39v-339.95h101.48l94.38,127.36,49.72,78.14h6.6l-4.57-74.08v-131.42h95.39v339.95h-101.48l-100.46-130.91-43.13-66.98h-6.6l4.06,64.95v132.94Z"/>
    <path class="st0" d="M2272.76,1376.97h-95.39v-339.95h101.48l94.38,127.36,49.72,78.14h6.6l-4.57-74.08v-131.42h95.39v339.95h-101.48l-100.46-130.91-43.13-66.98h-6.6l4.06,64.95v132.94Z"/>
    <path class="st0" d="M2637.58,1376.97h-107.06l146.64-339.95h136.49l147.14,339.95h-109.6l-80.68-196.36-22.33-57.33h-6.6l-21.82,57.33-82.2,196.36ZM2867.93,1314.05h-250.65v-85.75h250.65v85.75Z"/>
    <path class="st0" d="M759.73,1985.84h-95.39v-339.95h95.39v339.95ZM836.35,1985.84h-148.16v-85.75h148.16c20.3,0,36.36-1.69,48.2-5.07,11.84-3.38,20.29-11.07,25.37-23.09,5.07-12,7.61-30.7,7.61-56.07s-2.54-44.48-7.61-56.32c-5.07-11.84-13.53-19.45-25.37-22.83-11.84-3.38-27.91-5.07-48.2-5.07h-148.16v-85.75h148.16c37.55,0,70.02,6.68,97.42,20.04,27.4,13.37,48.54,32.73,63.42,58.1,14.88,25.37,22.33,55.99,22.33,91.84s-7.44,66.47-22.33,91.84c-14.89,25.37-36.02,44.74-63.42,58.1-27.4,13.37-59.87,20.04-97.42,20.04Z"/>
    <path class="st0" d="M1140.27,1985.84h-95.39v-339.95h95.39v339.95ZM1346.78,1731.64h-276.02v-85.75h276.02v85.75ZM1339.17,1857.47h-268.41v-85.24h268.41v85.24ZM1346.78,1985.84h-276.02v-85.75h276.02v85.75Z"/>
    <path class="st0" d="M1469.06,1985.84h-95.39v-339.95h95.39v339.95ZM1665.42,1985.84h-265.37v-85.75h265.37v85.75Z"/>
    <path class="st0" d="M1786.18,1985.84h-95.39v-339.95h95.39v339.95ZM1982.54,1985.84h-265.37v-85.75h265.37v85.75Z"/>
    <path class="st0" d="M2094.67,1985.84h-107.06l146.64-339.95h136.49l147.14,339.95h-109.6l-80.68-196.36-22.33-57.33h-6.6l-21.82,57.33-82.2,196.36ZM2325.03,1922.93h-250.65v-85.75h250.65v85.75Z"/>
    <path class="st0" d="M923.36,2594.71h-95.39v-339.95h101.48l94.38,127.36,49.72,78.14h6.6l-4.57-74.08v-131.42h95.39v339.95h-101.48l-100.46-130.91-43.13-66.98h-6.6l4.06,64.95v132.94Z"/>
    <path class="st0" d="M1296.8,2594.71h-95.39v-339.95h95.39v339.95ZM1503.31,2340.51h-276.02v-85.75h276.02v85.75ZM1495.7,2466.34h-268.41v-85.24h268.41v85.24ZM1503.31,2594.71h-276.02v-85.75h276.02v85.75Z"/>
    <path class="st0" d="M1783.39,2594.71h-137l-136.49-339.95h115.18l87.78,243.55h6.6l85.75-243.55h114.67l-136.49,339.95Z"/>
    <path class="st0" d="M2025.41,2594.71h-95.39v-339.95h95.39v339.95ZM2231.92,2340.51h-276.02v-85.75h276.02v85.75ZM2224.31,2466.34h-268.41v-85.24h268.41v85.24ZM2231.92,2594.71h-276.02v-85.75h276.02v85.75Z"/>
  </g>
</svg>