<?xml version="1.0" encoding="UTF-8"?>
<svg id="Layer_1" xmlns="http://www.w3.org/2000/svg" version="1.1" viewBox="0 0 3061.42 3061.42">
  <!-- Generator: Adobe Illustrator 30.1.0, SVG Export Plug-In . SVG Version: 2.1.1 Build 136)  -->
  <defs>
    <style>
      .st0 {
        fill: #ffd900;
      }

      .st1 {
        fill: #fff;
      }
    </style>
  </defs>
  <path class="st1" d="M2950.42,1931.32c8.1,30.26-9.86,61.4-40.12,69.5l-249.91,66.96-.04.02,195.75,113c27.15,15.67,36.46,50.4,20.78,77.53l-41.07,71.14c-15.68,27.13-50.38,36.44-77.53,20.76l-195.71-113,66.96,249.91c8.1,30.26-9.86,61.38-40.14,69.5l-79.3,21.25c-30.26,8.1-61.4-9.86-69.5-40.14l-102.76-383.53c-4.75-17.71-12.91-34.11-23.86-48.36-10.94-14.26-24.67-26.4-40.54-35.55l-644.91-372.35v746.81c0,36.65,14.55,71.81,40.48,97.72l.04.04,280.76,280.78c22.16,22.16,22.16,58.09,0,80.25l-58.06,58.07c-22.16,22.16-58.09,22.16-80.25,0l-182.97-182.97v226.03c0,31.35-25.41,56.74-56.74,56.74h-82.14c-31.33,0-56.74-25.4-56.74-56.74v-225.99l-182.95,182.93c-22.16,22.16-58.09,22.16-80.25,0l-58.07-58.07c-22.16-22.16-22.16-58.09,0-80.25l280.78-280.76c12.95-12.95,23.07-28.21,29.95-44.84,6.88-16.6,10.53-34.56,10.53-52.88v-744.7l-644.87,372.31c-31.74,18.34-54.89,48.52-64.37,83.91l-.02.06-102.78,383.55c-8.12,30.26-39.24,48.23-69.5,40.12l-79.32-21.25c-30.27-8.12-48.23-39.24-40.12-69.5l66.98-249.95-195.75,113.02c-27.15,15.67-61.85,6.37-77.53-20.76l-41.07-71.14c-15.65-27.13-6.37-61.85,20.78-77.51l195.71-113-249.89-66.98c-30.28-8.12-48.25-39.24-40.12-69.5l21.23-79.32c8.12-30.26,39.24-48.23,69.52-40.12l383.53,102.78c11.77,3.15,23.8,4.71,35.77,4.71,24.05,0,47.91-6.29,69.11-18.51l646.82-373.43-646.76-373.41c-31.74-18.32-69.46-23.29-104.87-13.8l-.06.02-383.53,102.74c-30.28,8.12-61.4-9.86-69.5-40.12l-21.25-79.3c-8.12-30.28,9.84-61.4,40.12-69.5l249.93-66.98-195.75-113.02c-27.13-15.67-36.44-50.38-20.76-77.53l41.07-71.12c15.66-27.15,50.38-36.44,77.51-20.78l195.73,113-66.96-249.89c-8.1-30.28,9.86-61.4,40.12-69.5l79.32-21.25c30.26-8.12,61.38,9.86,69.5,40.12l102.74,383.55c4.75,17.71,12.91,34.09,23.86,48.35,10.94,14.27,24.67,26.4,40.54,35.57l644.91,372.33v-742.43c0-36.65-14.57-71.81-40.48-97.74l-.02-.02-280.76-280.78c-22.16-22.16-22.16-58.09,0-80.25l58.07-58.07c22.16-22.16,58.09-22.16,80.25,0l182.97,182.97V56.74c0-31.33,25.39-56.74,56.74-56.74h82.14c31.33,0,56.74,25.41,56.74,56.74v225.99l182.95-182.93c22.16-22.16,58.09-22.16,80.25,0l58.06,58.07c22.16,22.16,22.16,58.09,0,80.25l-280.78,280.76c-12.97,12.97-23.09,28.23-29.97,44.84-6.86,16.62-10.51,34.58-10.51,52.9v744.66l644.87-372.31c31.74-18.34,54.89-48.52,64.39-83.91v-.04l102.78-383.53c8.1-30.28,39.22-48.25,69.5-40.12l79.3,21.23c30.28,8.12,48.25,39.24,40.14,69.52l-66.98,249.91v.02l195.75-113.02c27.13-15.67,61.85-6.37,77.53,20.78l41.05,71.12c15.68,27.15,6.37,61.85-20.76,77.53l-195.71,113,249.89,66.96c30.26,8.12,48.23,39.24,40.12,69.5l-21.25,79.32c-8.1,30.26-39.22,48.23-69.5,40.12l-383.53-102.78c-11.77-3.15-23.8-4.71-35.77-4.71-24.05,0-47.91,6.29-69.11,18.51l-643.02,371.24,642.98,371.22c31.74,18.34,69.46,23.29,104.87,13.8h.02l383.55-102.76c30.28-8.1,61.4,9.86,69.5,40.12l21.25,79.32Z"/>
  <g>
    <path class="st0" d="M3061.42,1491.21v81.11c0,31.63-25.63,57.26-57.26,57.26h-425.37c-31.61,0-57.24-25.63-57.24-57.26v-81.11c0-31.61,25.63-57.24,57.24-57.24h425.37c31.63,0,57.26,25.63,57.26,57.24Z"/>
    <path class="st0" d="M539.86,1491.21v81.11c0,31.63-25.63,57.26-57.26,57.26H57.24C25.63,1629.58,0,1603.95,0,1572.32v-81.11c0-31.61,25.63-57.24,57.24-57.24h425.37c31.63,0,57.26,25.63,57.26,57.24Z"/>
    <path class="st0" d="M1091.35,2487.29l-212.68,368.39c-15.79,27.37-50.81,36.75-78.2,20.94l-70.25-40.56c-27.39-15.79-36.77-50.81-20.96-78.2l212.68-368.37c15.81-27.39,50.83-36.77,78.22-20.96l70.23,40.56c27.39,15.81,36.77,50.83,20.96,78.2Z"/>
    <path class="st0" d="M2352.13,303.56l-212.68,368.39c-15.79,27.37-50.81,36.75-78.2,20.94l-70.25-40.56c-27.39-15.79-36.75-50.81-20.96-78.2l212.68-368.37c15.81-27.39,50.83-36.77,78.22-20.96l70.25,40.56c27.37,15.81,36.75,50.81,20.94,78.2Z"/>
    <path class="st0" d="M2331.18,2836.06l-70.23,40.58c-27.39,15.79-62.4,6.43-78.22-20.96l-212.68-368.39c-15.79-27.37-6.43-62.38,20.96-78.2l70.25-40.56c27.39-15.81,62.4-6.43,78.2,20.96l212.68,368.37c15.81,27.39,6.43,62.4-20.96,78.2Z"/>
    <path class="st0" d="M1070.42,652.32l-70.25,40.56c-27.39,15.81-62.4,6.43-78.22-20.94l-212.68-368.39c-15.79-27.39-6.43-62.38,20.96-78.2l70.25-40.56c27.39-15.81,62.4-6.43,78.2,20.96l212.68,368.37c15.81,27.39,6.43,62.4-20.94,78.2Z"/>
    <path class="st0" d="M1530.7,711.4c-453.07,0-820.35,367.3-820.35,820.37s367.28,820.37,820.35,820.37,820.37-367.3,820.37-820.37-367.28-820.37-820.37-820.37ZM1530.7,2156.51c-345.02,0-624.74-279.7-624.74-624.74s279.72-624.74,624.74-624.74,624.76,279.7,624.76,624.74-279.72,624.74-624.76,624.74Z"/>
  </g>
</svg>