<?xml version="1.0" encoding="UTF-8"?>
<svg id="Layer_1" xmlns="http://www.w3.org/2000/svg" version="1.1" viewBox="0 0 3061.42 3061.42">
  <!-- Generator: Adobe Illustrator 30.1.0, SVG Export Plug-In . SVG Version: 2.1.1 Build 136)  -->
  <defs>
    <style>
      .st0 {
        fill: #ffd900;
      }

      .st1 {
        fill: #fff;
      }
    </style>
  </defs>
  <path class="st1" d="M1934.28,1363.99c2.1,7.85-2.55,15.92-10.4,18.02l-64.8,17.36h-.01l50.76,29.3c7.04,4.07,9.45,13.07,5.39,20.1l-10.65,18.44c-4.07,7.03-13.06,9.45-20.1,5.39l-50.75-29.3,17.36,64.8c2.1,7.85-2.55,15.92-10.41,18.02l-20.56,5.51c-7.85,2.1-15.92-2.55-18.02-10.41l-26.65-99.45c-1.23-4.59-3.35-8.85-6.19-12.54s-6.4-6.85-10.51-9.22l-167.22-96.55v193.65c0,9.5,3.78,18.62,10.5,25.34h.01l72.8,72.82c5.74,5.74,5.74,15.06,0,20.81l-15.06,15.06c-5.74,5.74-15.06,5.74-20.81,0l-47.44-47.44v58.61c0,8.13-6.59,14.71-14.71,14.71h-21.3c-8.12,0-14.71-6.58-14.71-14.71v-58.6l-47.44,47.44c-5.74,5.74-15.06,5.74-20.81,0l-15.06-15.06c-5.74-5.74-5.74-15.06,0-20.81l72.81-72.81c3.36-3.36,5.98-7.31,7.76-11.62,1.78-4.3,2.73-8.96,2.73-13.71v-193.1l-167.22,96.54c-8.23,4.75-14.23,12.58-16.69,21.76v.02l-26.66,99.46c-2.1,7.85-10.18,12.51-18.02,10.4l-20.57-5.51c-7.85-2.1-12.51-10.18-10.4-18.02l17.37-64.81-50.76,29.3c-7.04,4.07-16.04,1.65-20.1-5.39l-10.65-18.44c-4.06-7.03-1.65-16.04,5.39-20.1l50.75-29.3-64.8-17.37c-7.85-2.1-12.51-10.18-10.4-18.02l5.51-20.57c2.1-7.85,10.18-12.51,18.03-10.4l99.45,26.65c3.05.82,6.17,1.22,9.28,1.22,6.24,0,12.43-1.63,17.92-4.8l167.72-96.83-167.71-96.82c-8.23-4.75-18.01-6.04-27.19-3.58h-.02l-99.45,26.65c-7.85,2.1-15.92-2.55-18.02-10.4l-5.51-20.56c-2.1-7.85,2.55-15.92,10.4-18.02l64.81-17.37-50.76-29.3c-7.03-4.07-9.45-13.06-5.39-20.1l10.65-18.44c4.06-7.04,13.06-9.45,20.1-5.39l50.75,29.3-17.36-64.8c-2.1-7.85,2.55-15.92,10.4-18.02l20.57-5.51c7.85-2.1,15.92,2.55,18.02,10.4l26.64,99.46c1.23,4.59,3.35,8.84,6.19,12.54,2.84,3.7,6.4,6.85,10.51,9.22l167.22,96.55v-192.51c0-9.5-3.78-18.62-10.5-25.34h0l-72.8-72.81c-5.74-5.74-5.74-15.06,0-20.81l15.06-15.06c5.74-5.74,15.06-5.74,20.81,0l47.44,47.44v-58.61c0-8.12,6.58-14.71,14.71-14.71h21.3c8.12,0,14.71,6.59,14.71,14.71v58.6l47.44-47.44c5.74-5.74,15.06-5.74,20.81,0l15.06,15.06c5.74,5.74,5.74,15.06,0,20.81l-72.81,72.81c-3.36,3.36-5.99,7.32-7.77,11.62-1.78,4.31-2.72,8.97-2.72,13.71v193.09l167.22-96.54c8.23-4.75,14.23-12.58,16.7-21.76h0l26.65-99.46c2.1-7.85,10.17-12.51,18.02-10.4l20.56,5.51c7.85,2.1,12.51,10.18,10.41,18.03l-17.37,64.8h0l50.76-29.3c7.03-4.07,16.04-1.65,20.1,5.39l10.64,18.44c4.07,7.04,1.65,16.04-5.39,20.1l-50.75,29.3,64.8,17.36c7.85,2.1,12.51,10.18,10.4,18.02l-5.51,20.57c-2.1,7.85-10.17,12.51-18.02,10.4l-99.45-26.65c-3.05-.82-6.17-1.22-9.28-1.22-6.24,0-12.43,1.63-17.92,4.8l-166.74,96.27,166.72,96.26c8.23,4.75,18.01,6.04,27.19,3.58h0l99.46-26.65c7.85-2.1,15.92,2.55,18.02,10.4l5.51,20.57h.02v-.03Z"/>
  <g>
    <path class="st0" d="M1452.22,1508.15l-55.15,95.52c-4.1,7.09-13.17,9.53-20.27,5.43l-18.21-10.52c-7.1-4.1-9.53-13.17-5.43-20.27l55.15-95.52c4.1-7.1,13.18-9.53,20.28-5.43l18.21,10.52c7.1,4.1,9.53,13.18,5.43,20.27h-.01Z"/>
    <path class="st0" d="M1779.14,941.91l-55.15,95.52c-4.1,7.09-13.17,9.53-20.27,5.43l-18.21-10.52c-7.1-4.1-9.53-13.17-5.43-20.27l55.15-95.52c4.1-7.1,13.18-9.53,20.28-5.43l18.21,10.52c7.09,4.1,9.53,13.17,5.43,20.27h-.01Z"/>
    <path class="st0" d="M1773.71,1598.59l-18.21,10.52c-7.1,4.1-16.18,1.67-20.28-5.43l-55.15-95.52c-4.1-7.09-1.67-16.18,5.43-20.27l18.21-10.52c7.1-4.1,16.18-1.67,20.27,5.43l55.15,95.52c4.1,7.1,1.67,16.18-5.43,20.27h.01Z"/>
    <path class="st0" d="M1446.79,1032.34l-18.21,10.52c-7.1,4.1-16.18,1.67-20.28-5.43l-55.15-95.52c-4.1-7.1-1.67-16.18,5.43-20.27l18.21-10.52c7.1-4.1,16.18-1.67,20.27,5.43l55.15,95.52c4.1,7.1,1.67,16.18-5.43,20.27h.01Z"/>
    <path class="st0" d="M1566.14,1047.66c-117.48,0-212.71,95.24-212.71,212.72s95.24,212.72,212.71,212.72,212.72-95.24,212.72-212.72-95.24-212.72-212.72-212.72h0ZM1566.14,1422.38c-89.46,0-161.99-72.53-161.99-161.99s72.53-161.99,161.99-161.99,162,72.53,162,161.99-72.53,161.99-162,161.99Z"/>
  </g>
  <g>
    <path class="st0" d="M776.85,712.02c0,26.81-6.59,51.78-19.77,74.89-13.17,23.13-33.98,41.62-62.41,55.49-28.44,13.87-66.01,20.8-112.7,20.8s-81.38-6.59-110.96-19.76c-29.6-13.18-51.79-31.67-66.58-55.49-14.8-23.8-22.19-51.89-22.19-84.26v-3.47c0-3.06,2.48-5.54,5.54-5.54h117.22c3.06,0,5.54,2.48,5.54,5.54h0c0,12.49,2.08,22.09,6.24,28.79,4.16,6.7,11.67,11.21,22.54,13.52,10.86,2.32,26.7,3.47,47.5,3.47,24.51,0,40.58-2.08,48.2-6.24,7.63-4.17,11.45-11.33,11.45-21.5,0-7.39-1.04-13.18-3.12-17.34-2.08-4.16-5.9-7.51-11.45-10.06-5.54-2.53-13.64-4.51-24.27-5.89l-101.25-15.95c-31.45-5.09-56.99-13.75-76.64-26.01-19.65-12.25-33.98-27.74-42.99-46.47-9.02-18.72-13.53-40.1-13.53-64.15,0-27.74,7.16-52.7,21.5-74.9,14.33-22.19,36.29-39.87,65.88-53.05s67.04-19.76,112.35-19.76,79.29,6.58,107.5,19.76c28.19,13.18,49.24,31.21,63.11,54.1,13.87,22.88,20.8,48.89,20.8,78.02v6.25c0,3.06-2.48,5.54-5.54,5.54h-117.22c-3.06,0-5.54-2.48-5.54-5.54v-2.79c0-9.24-1.97-16.64-5.89-22.19-3.93-5.55-10.99-9.59-21.15-12.14-10.18-2.53-24.97-3.81-44.39-3.81-24.51,0-40.92,2.08-49.24,6.24s-12.48,10.64-12.48,19.42c0,4.63,1.15,8.56,3.47,11.79,2.3,3.24,6.12,5.89,11.44,7.98,5.31,2.08,12.36,4.05,21.15,5.89l101.26,18.03c32.82,5.55,59.29,14.91,79.4,28.09,20.12,13.18,34.68,29.25,43.69,48.2,9.02,18.96,13.53,40.46,13.53,64.5h0Z"/>
    <path class="st0" d="M1109.21,391.61h-179.97c-2.8,0-5.29,1.77-6.21,4.42l-157.01,451.5c-1.49,4.28,1.69,8.74,6.21,8.74h120.55c2.84,0,5.35-1.82,6.24-4.51l26.65-80.45c.89-2.69,3.41-4.51,6.24-4.51h166.64c2.86,0,5.4,1.85,6.27,4.58l25.64,80.31c.87,2.73,3.4,4.58,6.27,4.58h128.82c4.52,0,7.7-4.46,6.22-8.73l-156.34-451.5c-.92-2.65-3.41-4.43-6.22-4.43h0ZM973.95,653.07c-4.49,0-7.66-4.39-6.25-8.65l6.1-18.4,36.7-116.76c.86-2.74,3.4-4.61,6.28-4.61h0c2.9,0,5.46,1.9,6.3,4.67l35.34,116.7,5.9,18.47c1.36,4.24-1.81,8.58-6.27,8.58h-84.1Z"/>
    <path class="st0" d="M1587.77,703.69h.48v-9.01c0,3.17-.16,6.17-.48,9.01ZM1587.77,703.69h.48v-9.01c0,3.17-.16,6.17-.48,9.01Z"/>
    <path class="st0" d="M1713.78,607.99v246.2c0,1.15-.93,2.08-2.08,2.08h-117.9c-1.15,0-2.08-.93-2.08-2.08v-61.03c0-1.15-.93-2.08-2.08-2.08h-2.79c-.83,0-1.57.49-1.9,1.25-4.62,10.67-11.38,21.35-20.28,32.03-9.25,11.1-22.31,20.35-39.18,27.74-16.88,7.39-39.65,11.1-68.31,11.1-43.47,0-80-9.59-109.58-28.78-29.59-19.18-51.9-46.57-66.92-82.18-15.03-35.6-22.54-78.37-22.54-128.3s9.24-90.73,27.74-126.57c18.49-35.82,45.53-63.56,81.14-83.22,35.6-19.65,79.29-29.47,131.07-29.47,48.55,0,88.66,7.52,120.33,22.53,31.66,15.03,55.36,36.07,71.08,63.11,15.72,27.05,23.58,58.84,23.58,95.36v2.78c0,1.15-.93,2.08-2.08,2.08h-135.23c-1.15,0-2.08-.93-2.08-2.08h0c0-21.26-5.79-36.07-17.34-44.39-11.56-8.32-33.98-12.48-67.27-12.48-22.66,0-40.69,2.89-54.1,8.67s-22.88,16.64-28.43,32.59-8.32,39.65-8.32,71.09c0,34.22,3.12,59.88,9.36,76.98,6.24,17.11,16.87,28.43,31.9,33.98,15.02,5.55,35.48,8.32,61.38,8.32s43.69-1.61,56.17-4.85c12.49-3.23,20.81-8.43,24.97-15.61,3.02-5.2,4.94-11.55,5.76-19.07h.48v-9.01c0,3.17-.16,6.17-.48,9.01h-107.71c-1.15,0-2.08-.93-2.08-2.08v-93.62c0-1.15.93-2.08,2.08-2.08h231.64c1.15,0,2.08.93,2.08,2.08h0Z"/>
    <path class="st0" d="M2176.97,842.54l-4.78,13.73h11.1l-6.32-13.73Z"/>
    <path class="st0" d="M2520.43,391.61h-183.99c-1.6,0-3.02,1.01-3.54,2.52l-152.88,439.63c-1.11,3.19-5.53,3.4-6.94.34l-38.34-83.24c-8.79-19.87-19.07-36.98-30.86-51.32-11.32-13.75-28.08-23.68-50.26-29.77-1.64-.45-2.79-1.92-2.79-3.62v-.06c0-1.88,1.4-3.46,3.27-3.72,24.82-3.4,44.64-10.32,59.49-20.74,15.48-10.86,26.7-25.31,33.63-43.34,6.94-18.03,10.41-39.29,10.41-63.81,0-30.96-6.25-57.09-18.73-78.36-12.48-21.26-31.45-37.33-56.87-48.2-25.43-10.86-57.8-16.3-97.09-16.3h-229.96c-2.07,0-3.75,1.68-3.75,3.75v457.16c0,2.07,1.68,3.75,3.75,3.75h122.88c2.07,0,3.75-1.68,3.75-3.75v-140.92c0-2.07,1.68-3.75,3.75-3.75h28.15c14.79,0,26.23,1.51,34.33,4.51,8.08,3.01,14.79,8.32,20.11,15.95,5.31,7.63,11.2,18.15,17.68,31.56l44.76,94.26c.62,1.31,1.94,2.14,3.39,2.14h270.24c1.62,0,3.05-1.04,3.56-2.57l27.94-84.33c.51-1.53,1.94-2.57,3.56-2.57h170.76c1.63,0,3.07,1.05,3.57,2.61l26.9,84.25c.5,1.55,1.94,2.61,3.57,2.61h134.86c2.58,0,4.38-2.54,3.54-4.97l-158.3-457.16c-.52-1.51-1.94-2.52-3.54-2.52v-.02ZM2017.54,589.96c-6.48,6.48-18.97,9.71-37.45,9.71h-94.73c-2.07,0-3.75-1.68-3.75-3.75v-83.36c0-2.07,1.68-3.75,3.75-3.75h94.73c18.48,0,30.97,3.02,37.45,9.02,6.46,6.01,9.71,17.58,9.71,34.68,0,18.49-3.25,30.98-9.71,37.45ZM2379.24,653.07c-2.56,0-4.36-2.5-3.56-4.93l7.33-22.12,37.33-118.75c.49-1.56,1.94-2.62,3.58-2.62h4.18c1.65,0,3.11,1.08,3.59,2.66l35.94,118.71,7.08,22.16c.77,2.42-1.03,4.89-3.57,4.89h-91.9Z"/>
    <path class="st0" d="M496.62,1060.79v398.04c0,2.35-1.91,4.26-4.26,4.26h-105.55c-2.35,0-4.26-1.91-4.26-4.26v-61.37c0-55.34,2.11-110.65,6.33-165.82h0c.19-2.48-1.77-4.59-4.25-4.59h-.01c-1.93,0-3.62,1.3-4.12,3.17l-24.01,90.17c-.02.08-.04.15-.07.23l-31.77,97.07c-.57,1.75-2.21,2.94-4.05,2.94h-132.78c-1.84,0-3.48-1.19-4.05-2.94l-31.81-97.18-24.63-90.31c-.51-1.85-2.19-3.14-4.11-3.14h0c-2.49,0-4.46,2.13-4.25,4.62h0c4.59,55.15,6.9,110.47,6.9,165.81v61.36c0,2.35-1.91,4.26-4.26,4.26H16.03c-2.35,0-4.26-1.91-4.26-4.26v-398.04c0-2.35,1.91-4.26,4.26-4.26h146.93c1.77,0,3.36,1.1,3.99,2.75l22.5,59.4c24.74,65.3,45.58,132.02,62.42,199.79h0c.47,1.9,2.18,3.24,4.14,3.24h1.28c1.93,0,3.62-1.3,4.12-3.17h0c18.04-67.86,38.29-135.11,60.72-201.64l19.38-57.47c.58-1.73,2.21-2.9,4.04-2.9h146.8c2.35,0,4.26,1.91,4.26,4.26v-.02Z"/>
    <path class="st0" d="M805.04,1056.52h-157.47c-2.45,0-4.63,1.55-5.43,3.86l-137.4,395.07c-1.3,3.74,1.48,7.64,5.43,7.64h105.49c2.48,0,4.68-1.59,5.46-3.94l23.33-70.39c.78-2.35,2.98-3.94,5.46-3.94h145.81c2.5,0,4.72,1.62,5.48,4l22.44,70.28c.76,2.38,2.98,4,5.48,4h112.72c3.95,0,6.73-3.9,5.44-7.63l-136.8-395.07c-.8-2.32-2.98-3.87-5.44-3.87h0ZM686.69,1285.29c-3.92,0-6.69-3.84-5.46-7.56l5.33-16.1,32.11-102.17c.75-2.4,2.98-4.03,5.49-4.03h0c2.53,0,4.77,1.66,5.51,4.09l30.92,102.11,5.16,16.16c1.19,3.71-1.58,7.5-5.48,7.5h-73.59.01Z"/>
    <path class="st0" d="M1313.71,1149.97c-15.98-30.34-39.35-53.5-70.09-69.48-30.75-15.98-68.37-23.97-112.87-23.97h-168.42c-3.84,0-6.95,3.11-6.95,6.95v392.66c0,3.84,3.11,6.95,6.95,6.95h168.42c44.5,0,82.12-7.98,112.87-23.97,30.74-15.97,54.11-39.14,70.09-69.48s23.97-66.95,23.97-109.83-7.99-79.5-23.97-109.84h0ZM1206.91,1324.13c-5.06,14.56-14.06,24.27-27,29.13-12.96,4.85-31.36,7.28-55.22,7.28h-48.28c-3.84,0-6.95-3.11-6.95-6.95v-187.56c0-3.84,3.11-6.95,6.95-6.95h48.28c23.86,0,42.26,2.43,55.22,7.28,12.94,4.86,21.94,14.47,27,28.83,5.05,14.36,7.59,35.91,7.59,64.63s-2.54,49.76-7.59,64.32h0Z"/>
    <path class="st0" d="M2176.31,1061.09v397.44c0,2.52-2.04,4.57-4.57,4.57h-114.28c-1.56,0-3.02-.8-3.86-2.12l-106.06-167.18-31.46-55.34c-.81-1.43-2.33-2.31-3.97-2.31h-.16c-2.71,0-4.83,2.35-4.54,5.05h0c3.69,35.05,5.54,70.26,5.54,105.5v111.84c0,2.52-2.04,4.57-4.57,4.57h-104.95c-2.52,0-4.57-2.04-4.57-4.57v-397.44c0-2.52,2.04-4.57,4.57-4.57h114.86c1.58,0,3.05.82,3.88,2.16l83.78,134.85c18.9,30.42,36.83,61.44,53.77,93h0c.8,1.48,2.34,2.41,4.02,2.41h0c2.74,0,4.87-2.4,4.53-5.12h0c-3.63-29.73-5.45-59.66-5.45-89.61v-133.11c0-2.52,2.04-4.57,4.57-4.57h104.34c2.52,0,4.57,2.04,4.57,4.57v-.02Z"/>
    <path class="st0" d="M2598.66,1061.09v397.44c0,2.52-2.04,4.57-4.57,4.57h-114.29c-1.56,0-3.02-.8-3.86-2.12l-106.06-167.18-31.46-55.34c-.81-1.43-2.33-2.31-3.97-2.31h-.16c-2.71,0-4.83,2.35-4.54,5.05h0c3.69,35.05,5.54,70.26,5.54,105.5v111.84c0,2.52-2.04,4.57-4.57,4.57h-104.95c-2.52,0-4.57-2.04-4.57-4.57v-397.44c0-2.52,2.04-4.57,4.57-4.57h114.86c1.58,0,3.05.82,3.88,2.16l83.78,134.85c18.9,30.42,36.83,61.44,53.77,93h0c.8,1.48,2.34,2.41,4.02,2.41h0c2.74,0,4.87-2.4,4.53-5.12h0c-3.63-29.73-5.45-59.66-5.45-89.61v-133.11c0-2.52,2.04-4.57,4.57-4.57h104.35c2.52,0,4.57,2.04,4.57,4.57v-.02Z"/>
    <path class="st0" d="M2907.07,1056.52h-157.48c-2.45,0-4.63,1.55-5.44,3.87l-137.38,395.05c-1.3,3.74,1.48,7.65,5.44,7.65h105.47c2.48,0,4.69-1.59,5.47-3.95l23.32-70.39c.78-2.36,2.98-3.95,5.47-3.95h145.81c2.51,0,4.72,1.62,5.49,4.01l22.44,70.27c.76,2.39,2.98,4.01,5.49,4.01h112.71c3.96,0,6.74-3.9,5.44-7.64l-136.79-395.05c-.8-2.32-2.99-3.87-5.44-3.87h-.02ZM2788.72,1285.29c-3.93,0-6.7-3.84-5.47-7.57l5.33-16.09,32.1-102.17c.75-2.4,2.98-4.03,5.49-4.03h0c2.54,0,4.78,1.66,5.51,4.09l30.92,102.11,5.16,16.15c1.19,3.72-1.59,7.51-5.49,7.51h-73.57.02Z"/>
    <path class="st0" d="M1031.63,1714.84c-13.71-26.01-33.73-45.86-60.08-59.56-26.36-13.69-58.6-20.54-96.75-20.54h-143.24c-3.91,0-7.07,3.17-7.07,7.07v334.35c0,3.91,3.17,7.07,7.07,7.07h143.24c38.15,0,70.39-6.84,96.75-20.55,26.35-13.69,46.37-33.55,60.08-59.55,13.69-26.01,20.54-57.39,20.54-94.15s-6.85-68.14-20.54-94.14h0ZM940.08,1864.12c-4.34,12.48-12.05,20.8-23.14,24.96-11.11,4.16-26.88,6.25-47.34,6.25h-40.26c-3.91,0-7.07-3.17-7.07-7.07v-158.55c0-3.91,3.17-7.07,7.07-7.07h40.26c20.46,0,36.23,2.08,47.34,6.24,11.09,4.16,18.8,12.4,23.14,24.71,4.33,12.31,6.5,30.78,6.5,55.39s-2.17,42.65-6.5,55.14Z"/>
    <path class="st0" d="M1174.4,1729.33v28.76c0,3.69,2.99,6.69,6.69,6.69h162.44c3.69,0,6.69,2.99,6.69,6.69v74.01c0,3.69-2.99,6.69-6.69,6.69h-162.44c-3.69,0-6.69,2.99-6.69,6.69v29.81c0,3.69,2.99,6.69,6.69,6.69h170.24c3.69,0,6.69,2.99,6.69,6.69v74.53c0,3.69-2.99,6.69-6.69,6.69h-268.02c-3.69,0-6.69-2.99-6.69-6.69v-335.12c0-3.69,2.99-6.69,6.69-6.69h268.02c3.69,0,6.69,2.99,6.69,6.69v74.53c0,3.69-2.99,6.69-6.69,6.69h-170.24c-3.69,0-6.69,2.99-6.69,6.69v-.04Z"/>
    <path class="st0" d="M1660.73,1902.04v74.49c0,3.7-3,6.71-6.71,6.71h-259.14c-3.7,0-6.71-3-6.71-6.71v-335.08c0-3.7,3-6.71,6.71-6.71h84.38c3.7,0,6.71,3,6.71,6.71v247.18c0,3.7,3,6.71,6.71,6.71h161.35c3.7,0,6.71,3,6.71,6.71h0Z"/>
    <path class="st0" d="M1950.44,1902.04v74.49c0,3.7-3,6.71-6.71,6.71h-259.14c-3.7,0-6.71-3-6.71-6.71v-335.08c0-3.7,3-6.71,6.71-6.71h84.38c3.7,0,6.71,3,6.71,6.71v247.18c0,3.7,3,6.71,6.71,6.71h161.35c3.7,0,6.71,3,6.71,6.71h0Z"/>
    <path class="st0" d="M2211.14,1634.74h-134.96c-2.1,0-3.97,1.33-4.66,3.32l-117.75,338.61c-1.12,3.21,1.27,6.56,4.66,6.56h90.39c2.13,0,4.02-1.36,4.69-3.39l19.99-60.33c.67-2.02,2.56-3.39,4.69-3.39h124.98c2.15,0,4.05,1.39,4.7,3.44l19.23,60.23c.65,2.05,2.56,3.44,4.7,3.44h96.61c3.4,0,5.78-3.35,4.67-6.56l-117.26-338.61c-.69-1.99-2.56-3.32-4.67-3.32h-.01ZM2109.72,1830.83c-3.37,0-5.75-3.3-4.69-6.49l4.57-13.8,27.51-87.56c.65-2.06,2.55-3.46,4.71-3.46h0c2.18,0,4.1,1.42,4.73,3.51l26.5,87.51,4.42,13.85c1.02,3.19-1.36,6.44-4.7,6.44h-63.05Z"/>
    <path class="st0" d="M969.47,2102.45v567.77c0,3.6-2.92,6.52-6.52,6.52h-163.27c-2.23,0-4.31-1.14-5.51-3.03l-151.52-238.83-44.94-79.05c-1.16-2.04-3.32-3.3-5.67-3.3h-.23c-3.87,0-6.89,3.35-6.49,7.21h0c5.27,50.06,7.91,100.36,7.91,150.7v159.78c0,3.6-2.92,6.52-6.52,6.52h-149.92c-3.6,0-6.52-2.92-6.52-6.52v-567.77c0-3.6,2.92-6.52,6.52-6.52h164.09c2.26,0,4.35,1.17,5.54,3.08l119.68,192.64c27,43.47,52.62,87.78,76.82,132.87h0c1.14,2.12,3.34,3.44,5.75,3.44h0c3.92,0,6.95-3.43,6.48-7.31h0c-5.18-42.48-7.78-85.23-7.78-128.03v-190.17c0-3.6,2.92-6.52,6.52-6.52h149.06c3.6,0,6.52,2.92,6.52,6.52h0Z"/>
    <path class="st0" d="M1196.58,2253.75v47.58c0,6.25,5.07,11.32,11.32,11.32h270.37c6.25,0,11.32,5.07,11.32,11.32v123c0,6.25-5.07,11.32-11.32,11.32h-270.37c-6.25,0-11.32,5.07-11.32,11.32v49.31c0,6.25,5.07,11.32,11.32,11.32h283.37c6.25,0,11.32,5.07,11.32,11.32v123.86c0,6.25-5.07,11.32-11.32,11.32h-446.35c-6.25,0-11.32-5.07-11.32-11.32v-558.18c0-6.25,5.07-11.32,11.32-11.32h446.35c6.25,0,11.32,5.07,11.32,11.32v123.87c0,6.25-5.07,11.32-11.32,11.32h-283.37c-6.25,0-11.32,5.07-11.32,11.32h0Z"/>
    <path class="st0" d="M2127.84,2110.47l-191.85,558.86c-1.52,4.44-5.7,7.42-10.39,7.42h-208.84c-4.7,0-8.87-2.99-10.39-7.43l-191.01-558.86c-2.44-7.13,2.86-14.53,10.39-14.53h160.33c4.82,0,9.07,3.14,10.49,7.74l119.05,385.67c.98,3.19,3.93,5.36,7.27,5.36h0c3.35,0,6.31-2.2,7.28-5.41l116.51-385.57c1.4-4.63,5.67-7.81,10.51-7.81h160.26c7.54,0,12.83,7.42,10.39,14.55h0Z"/>
    <path class="st0" d="M2307.08,2253.75v47.59c0,6.25,5.07,11.31,11.31,11.31h270.38c6.25,0,11.31,5.07,11.31,11.31v123.01c0,6.25-5.07,11.31-11.31,11.31h-270.38c-6.25,0-11.31,5.07-11.31,11.31v49.32c0,6.25,5.07,11.31,11.31,11.31h283.38c6.25,0,11.31,5.07,11.31,11.31v123.87c0,6.25-5.07,11.31-11.31,11.31h-446.36c-6.25,0-11.31-5.07-11.31-11.31v-558.19c0-6.25,5.07-11.31,11.31-11.31h446.36c6.25,0,11.31,5.07,11.31,11.31v123.88c0,6.25-5.07,11.31-11.31,11.31h-283.38c-6.25,0-11.31,5.07-11.31,11.31v.04Z"/>
  </g>
</svg>