<?xml version="1.0" encoding="UTF-8"?>
<svg id="Layer_1" xmlns="http://www.w3.org/2000/svg" version="1.1" viewBox="0 0 3061.42 3061.42">
  <!-- Generator: Adobe Illustrator 30.1.0, SVG Export Plug-In . SVG Version: 2.1.1 Build 136)  -->
  <defs>
    <style>
      .st0 {
        fill: #ffd900;
      }

      .st1 {
        fill: #fff;
      }
    </style>
  </defs>
  <path class="st1" d="M1912.25,1287.26c1.86,7.29-2.27,14.78-9.23,16.73l-57.5,16.12h0s45.04,27.21,45.04,27.21c6.25,3.77,8.39,12.13,4.78,18.66l-9.45,17.13c-3.61,6.53-11.59,8.77-17.84,5l-45.03-27.2,15.41,60.16c1.86,7.29-2.27,14.78-9.24,16.73l-18.25,5.12c-6.96,1.95-14.13-2.37-15.99-9.66l-23.65-92.33c-1.09-4.26-2.97-8.21-5.49-11.64s-5.68-6.36-9.33-8.56l-148.39-89.64v179.78c0,8.82,3.35,17.29,9.31,23.52h0s64.6,67.6,64.6,67.6c5.1,5.33,5.1,13.98,0,19.32l-13.36,13.98c-5.1,5.34-13.37,5.34-18.46,0l-42.1-44.05v54.41c0,7.55-5.85,13.66-13.06,13.66h-18.9c-7.21,0-13.06-6.11-13.06-13.66v-54.4l-42.1,44.04c-5.1,5.34-13.37,5.34-18.46,0l-13.36-13.98c-5.1-5.33-5.1-13.98,0-19.32l64.61-67.59c2.98-3.12,5.31-6.79,6.89-10.79,1.58-4,2.42-8.32,2.42-12.73v-179.27l-148.38,89.63c-7.3,4.41-12.63,11.68-14.81,20.2h0s-23.65,92.35-23.65,92.35c-1.87,7.29-9.03,11.61-15.99,9.66l-18.25-5.12c-6.96-1.96-11.1-9.45-9.23-16.73l15.41-60.17-45.04,27.21c-6.25,3.77-14.23,1.53-17.84-5l-9.45-17.13c-3.6-6.53-1.47-14.89,4.78-18.66l45.03-27.2-57.5-16.12c-6.97-1.96-11.1-9.45-9.23-16.73l4.89-19.09c1.87-7.29,9.03-11.61,16-9.66l88.25,24.74c2.71.76,5.48,1.13,8.23,1.13,5.53,0,11.02-1.51,15.9-4.46l148.83-89.9-148.82-89.89c-7.3-4.41-15.98-5.61-24.13-3.32h-.01s-88.25,24.74-88.25,24.74c-6.97,1.96-14.13-2.37-15.99-9.66l-4.89-19.09c-1.87-7.29,2.26-14.78,9.23-16.73l57.51-16.12-45.04-27.21c-6.24-3.77-8.38-12.13-4.78-18.66l9.45-17.12c3.6-6.54,11.59-8.77,17.83-5l45.04,27.2-15.41-60.16c-1.86-7.29,2.27-14.78,9.23-16.73l18.25-5.12c6.96-1.96,14.12,2.37,15.99,9.66l23.64,92.33c1.09,4.26,2.97,8.21,5.49,11.64,2.52,3.44,5.68,6.36,9.33,8.56l148.39,89.63v-178.73c0-8.82-3.35-17.29-9.31-23.53h0s-64.6-67.6-64.6-67.6c-5.1-5.33-5.1-13.98,0-19.32l13.36-13.98c5.1-5.33,13.37-5.33,18.46,0l42.1,44.05v-54.41c0-7.54,5.84-13.66,13.06-13.66h18.9c7.21,0,13.06,6.12,13.06,13.66v54.4l42.1-44.04c5.1-5.33,13.37-5.33,18.46,0l13.36,13.98c5.1,5.33,5.1,13.98,0,19.32l-64.61,67.59c-2.99,3.12-5.31,6.8-6.9,10.79-1.58,4-2.42,8.33-2.42,12.73v179.26l148.38-89.63c7.3-4.41,12.63-11.68,14.82-20.2h0s23.65-92.34,23.65-92.34c1.86-7.29,9.02-11.61,15.99-9.66l18.25,5.11c6.97,1.96,11.1,9.45,9.24,16.74l-15.41,60.16h0s45.04-27.2,45.04-27.2c6.24-3.77,14.23-1.53,17.84,5l9.45,17.12c3.61,6.54,1.47,14.89-4.78,18.66l-45.03,27.2,57.5,16.12c6.96,1.96,11.1,9.45,9.23,16.73l-4.89,19.09c-1.86,7.29-9.02,11.61-15.99,9.66l-88.25-24.74c-2.71-.76-5.48-1.13-8.23-1.13-5.53,0-11.02,1.51-15.9,4.46l-147.96,89.37,147.95,89.37c7.3,4.41,15.98,5.61,24.13,3.32h0l88.25-24.74c6.97-1.95,14.13,2.37,15.99,9.66l4.89,19.09Z"/>
  <g>
    <path class="st0" d="M1484.49,1421.1l-48.94,88.68c-3.63,6.59-11.69,8.85-17.99,5.04l-16.16-9.76c-6.3-3.8-8.46-12.23-4.82-18.82l48.94-88.68c3.64-6.59,11.7-8.85,18-5.05l16.16,9.76c6.3,3.81,8.46,12.24,4.82,18.82Z"/>
    <path class="st0" d="M1774.59,895.41l-48.94,88.68c-3.63,6.59-11.69,8.85-17.99,5.04l-16.16-9.76c-6.3-3.8-8.46-12.23-4.82-18.82l48.94-88.68c3.64-6.59,11.7-8.85,18-5.05l16.16,9.76c6.3,3.81,8.46,12.23,4.82,18.82Z"/>
    <path class="st0" d="M1769.77,1505.06l-16.16,9.77c-6.3,3.8-14.36,1.55-18-5.05l-48.94-88.68c-3.63-6.59-1.48-15.02,4.82-18.82l16.16-9.76c6.3-3.81,14.36-1.55,17.99,5.05l48.94,88.68c3.64,6.59,1.48,15.02-4.82,18.82Z"/>
    <path class="st0" d="M1479.67,979.37l-16.16,9.76c-6.3,3.81-14.36,1.55-18-5.04l-48.94-88.68c-3.63-6.59-1.48-15.02,4.82-18.82l16.16-9.76c6.3-3.81,14.36-1.55,17.99,5.05l48.94,88.68c3.64,6.59,1.48,15.02-4.82,18.82Z"/>
    <path class="st0" d="M1585.58,993.59c-104.25,0-188.76,88.42-188.76,197.49s84.51,197.49,188.76,197.49,188.77-88.42,188.77-197.49-84.51-197.49-188.77-197.49ZM1585.58,1341.47c-79.39,0-143.75-67.33-143.75-150.4s64.36-150.4,143.75-150.4,143.76,67.33,143.76,150.4-64.36,150.4-143.76,150.4Z"/>
  </g>
  <g>
    <path class="st0" d="M663.66,702.42c-37.13,0-69.16-4.86-96.1-14.57-26.94-9.71-47.69-24.75-62.25-45.13-14.56-20.37-21.84-46.74-21.84-79.12v-3.43h102.65v12c0,8.38,1.72,14.95,5.19,19.71,3.45,4.76,10.65,8.09,21.57,10,10.92,1.91,27.85,2.86,50.78,2.86,20.75,0,36.04-.66,45.86-2,9.83-1.33,16.11-3.61,18.84-6.85,2.73-3.23,4.09-7.71,4.09-13.42,0-6.86-2.46-12-7.37-15.42-4.91-3.43-14.84-6.09-29.76-8l-114.66-15.99c-22.57-3.43-41.5-9.8-56.78-19.14-15.29-9.33-26.75-21.61-34.4-36.84-7.64-15.23-11.47-33.13-11.47-53.7,0-15.23,3.09-30.28,9.28-45.13,6.19-14.85,16.19-28.28,30.03-40.27,13.83-12,32.03-21.61,54.6-28.85,22.56-7.23,50.41-10.85,83.54-10.85,38.95,0,71.06,5.62,96.37,16.85,25.3,11.24,44.23,27.23,56.79,47.98,12.56,20.76,18.84,45.41,18.84,73.98v3.43h-102.65v-8.57c0-9.14-1.91-16.37-5.73-21.71-3.82-5.33-11.47-9.14-22.93-11.42-11.47-2.29-28.66-3.43-51.6-3.43-17.47,0-30.76.86-39.86,2.57-9.1,1.71-15.38,4.28-18.84,7.71-3.46,3.43-5.19,8-5.19,13.71,0,3.81.82,7.14,2.46,10,1.64,2.85,4.37,5.05,8.19,6.57,3.82,1.53,9.01,2.86,15.56,4l114.66,17.71c29.84,4.57,52.96,12.48,69.34,23.71,16.38,11.24,27.85,24.47,34.4,39.7,6.55,15.23,9.83,31.04,9.83,47.41,0,21.71-5.73,41.99-17.2,60.84-11.47,18.85-29.76,34.09-54.87,45.7-25.12,11.62-58.24,17.42-99.37,17.42Z"/>
    <path class="st0" d="M953.04,696.7h-115.21l157.79-382.73h146.88l158.34,382.73h-117.94l-86.82-221.07-24.02-64.55h-7.1l-23.48,64.55-88.45,221.07ZM1200.93,625.87h-269.73v-96.54h269.73v96.54Z"/>
    <path class="st0" d="M1488.66,702.42c-38.22,0-70.98-8.09-98.28-24.28-27.3-16.18-48.14-39.03-62.52-68.55-14.39-29.51-21.57-64.26-21.57-104.25s8.37-74.73,25.12-104.25c16.74-29.51,40.95-52.36,72.62-68.55,31.67-16.18,69.7-24.28,114.12-24.28,41.5,0,76.99,6.1,106.47,18.28,29.49,12.19,52.05,29.61,67.71,52.27,15.65,22.66,23.48,49.8,23.48,81.4v4h-114.66v-4c0-17.9-6.19-30.56-18.56-37.99-12.38-7.43-34.77-11.14-67.16-11.14-26.21,0-46.5,2.57-60.88,7.71-14.38,5.14-24.48,14.48-30.3,27.99-5.83,13.52-8.74,33.04-8.74,58.55s2.73,44.56,8.19,58.27c5.46,13.71,15.02,23.14,28.67,28.28,13.65,5.14,32.84,7.71,57.6,7.71,29.49,0,51.68-1.04,66.61-3.14,14.92-2.09,24.84-6.66,29.76-13.71,4.92-7.04,7.37-17.99,7.37-32.85v-21.13l102.65-2.29v8l-89,80.54h-12.01c-3.28,14.85-9.38,28.94-18.29,42.27-8.92,13.33-22.03,24.19-39.31,32.56-17.29,8.37-40.32,12.57-69.07,12.57ZM1716.35,566.46h-216.22v-78.83h216.22v78.83ZM1716.35,696.7h-95.55v-109.11l-7.1-12v-82.83h102.65v203.93Z"/>
    <path class="st0" d="M1849.57,696.7h-102.65v-382.73h213.49c32.39,0,59.51,4.57,81.36,13.71,21.84,9.14,38.3,22.38,49.41,39.7,11.1,17.33,16.65,38.56,16.65,63.69,0,20.19-3.37,37.61-10.1,52.27-6.74,14.67-17.39,26.47-31.94,35.42-14.56,8.95-33.5,14.95-56.78,18v5.71c18.92,4.96,32.49,12.28,40.68,21.99,8.19,9.71,15.74,21.81,22.66,36.28l45.32,95.97h-118.48l-43.68-93.68c-4.37-9.51-8.93-16.94-13.65-22.28-4.74-5.33-10.92-9.04-18.57-11.14-7.64-2.09-18.2-3.14-31.67-3.14h-42.04v130.24ZM1849.57,410.51v75.97h109.75c14.92,0,25.47-2.29,31.67-6.86,6.19-4.57,9.28-15.04,9.28-31.42,0-15.23-3.1-25.32-9.28-30.28-6.19-4.94-16.75-7.43-31.67-7.43h-109.75Z"/>
    <path class="st0" d="M2227.41,696.7h-115.21l157.79-382.73h146.88l158.34,382.73h-117.94l-86.82-221.07-24.02-64.55h-7.1l-23.48,64.55-88.45,221.07ZM2475.29,625.87h-269.73v-96.54h269.73v96.54Z"/>
    <path class="st0" d="M102.65,1382.19H0v-382.73h139.23l67.16,158.8,36.04,98.82h7.1l34.4-98.82,63.88-158.8h139.23v382.73h-102.65v-158.23l3.82-63.98h-7.1l-20.75,63.98-54.6,135.38h-124.49l-54.6-135.38-20.75-63.98h-7.1l3.82,63.98v158.23Z"/>
    <path class="st0" d="M613.16,1382.19h-115.21l157.79-382.73h146.88l158.34,382.73h-117.94l-86.82-221.07-24.02-64.55h-7.1l-23.48,64.55-88.45,221.07ZM861.05,1311.35h-269.73v-96.54h269.73v96.54Z"/>
    <path class="st0" d="M1080.53,1382.19h-102.65v-382.73h102.65v382.73ZM1162.98,1382.19h-159.43v-96.54h159.43c21.84,0,39.12-1.9,51.87-5.71,12.74-3.8,21.84-12.47,27.3-25.99,5.46-13.51,8.19-34.56,8.19-63.12s-2.73-50.07-8.19-63.41c-5.46-13.32-14.56-21.89-27.3-25.71-12.75-3.8-30.03-5.71-51.87-5.71h-159.43v-96.54h159.43c40.4,0,75.35,7.52,104.83,22.56,29.49,15.05,52.23,36.84,68.25,65.41,16.01,28.56,24.03,63.03,24.03,103.39s-8.01,74.83-24.03,103.4c-16.02,28.56-38.76,50.37-68.25,65.41-29.49,15.05-64.43,22.56-104.83,22.56Z"/>
    <path class="st0" d="M1919.19,1382.19h-102.65v-382.73h109.2l101.56,143.38,53.51,87.97h7.1l-4.92-83.4v-147.95h102.65v382.73h-109.2l-108.11-147.38-46.41-75.41h-7.1l4.37,73.12v149.66Z"/>
    <path class="st0" d="M2321.04,1382.19h-102.65v-382.73h109.2l101.56,143.38,53.51,87.97h7.1l-4.92-83.4v-147.95h102.65v382.73h-109.2l-108.11-147.38-46.41-75.41h-7.1l4.37,73.12v149.66Z"/>
    <path class="st0" d="M2713.62,1382.19h-115.21l157.79-382.73h146.88l158.34,382.73h-117.94l-86.82-221.07-24.02-64.55h-7.1l-23.48,64.55-88.45,221.07ZM2961.5,1311.35h-269.73v-96.54h269.73v96.54Z"/>
    <path class="st0" d="M692.87,2067.67h-102.65v-382.73h102.65v382.73ZM775.32,2067.67h-159.43v-96.54h159.43c21.84,0,39.12-1.9,51.87-5.71,12.74-3.8,21.84-12.47,27.3-25.99,5.46-13.51,8.19-34.56,8.19-63.12s-2.73-50.07-8.19-63.41c-5.46-13.32-14.56-21.89-27.3-25.71-12.75-3.8-30.03-5.71-51.87-5.71h-159.43v-96.54h159.43c40.4,0,75.35,7.52,104.83,22.56,29.49,15.05,52.23,36.84,68.25,65.41,16.01,28.56,24.03,63.03,24.03,103.39s-8.01,74.83-24.03,103.4c-16.02,28.56-38.76,50.37-68.25,65.41-29.49,15.05-64.43,22.56-104.83,22.56Z"/>
    <path class="st0" d="M1102.37,2067.67h-102.65v-382.73h102.65v382.73ZM1324.59,1781.48h-297.03v-96.54h297.03v96.54ZM1316.4,1923.15h-288.84v-95.97h288.84v95.97ZM1324.59,2067.67h-297.03v-96.54h297.03v96.54Z"/>
    <path class="st0" d="M1456.18,2067.67h-102.65v-382.73h102.65v382.73ZM1667.48,2067.67h-285.56v-96.54h285.56v96.54Z"/>
    <path class="st0" d="M1797.43,2067.67h-102.65v-382.73h102.65v382.73ZM2008.73,2067.67h-285.56v-96.54h285.56v96.54Z"/>
    <path class="st0" d="M2129.4,2067.67h-115.21l157.79-382.73h146.88l158.34,382.73h-117.94l-86.82-221.07-24.02-64.55h-7.1l-23.48,64.55-88.45,221.07ZM2377.28,1996.84h-269.73v-96.54h269.73v96.54Z"/>
    <path class="st0" d="M868.96,2753.16h-102.65v-382.73h109.2l101.56,143.38,53.51,87.97h7.1l-4.92-83.4v-147.95h102.65v382.73h-109.2l-108.11-147.38-46.41-75.41h-7.1l4.37,73.12v149.66Z"/>
    <path class="st0" d="M1270.81,2753.16h-102.65v-382.73h102.65v382.73ZM1493.04,2466.97h-297.03v-96.54h297.03v96.54ZM1484.85,2608.63h-288.84v-95.97h288.84v95.97ZM1493.04,2753.16h-297.03v-96.54h297.03v96.54Z"/>
    <path class="st0" d="M1794.43,2753.16h-147.42l-146.87-382.73h123.94l94.46,274.19h7.1l92.28-274.19h123.4l-146.88,382.73Z"/>
    <path class="st0" d="M2054.87,2753.16h-102.65v-382.73h102.65v382.73ZM2277.09,2466.97h-297.03v-96.54h297.03v96.54ZM2268.9,2608.63h-288.84v-95.97h288.84v95.97ZM2277.09,2753.16h-297.03v-96.54h297.03v96.54Z"/>
  </g>
</svg>